<svg width="20" height="16" viewBox="0 0 20 16" fill="none" xmlns="http://www.w3.org/2000/svg">
<path d="M19.9999 4.58526V13.0731C19.9999 14.4389 18.8733 15.6096 17.4393 15.7072C15.2884 15.9023 12.3181 15.9999 10.0648 15.9999C7.81144 15.9999 4.84113 15.8048 2.69022 15.7072C1.25628 15.6096 0.129608 14.4389 0.129608 13.0731V4.58526L1.66597 5.36574L8.73326 9.07306C9.14295 9.26818 9.65508 9.36574 10.0648 9.36574C10.4745 9.36574 10.9866 9.26818 11.3963 9.07306L18.4636 5.36574L19.9999 4.58526Z" fill="#54BA4E"/>
<path d="M19.8975 2.43896C19.8975 2.63409 19.7951 2.92677 19.5903 3.02433L18.3612 3.60969L10.5769 7.70726C10.1672 7.90238 9.75753 7.90238 9.34783 7.70726L0.334486 3.02433C0.129637 2.92677 -0.0752114 2.73165 0.027213 2.53652C0.232062 1.36579 1.25631 0.390183 2.58782 0.292622C4.73874 0.0974999 7.70904 -6.10352e-05 9.96238 -6.10352e-05C12.2157 -6.10352e-05 15.2884 0.195061 17.3369 0.292622C18.6685 0.390183 19.6927 1.26823 19.8975 2.43896Z" fill="#54BA4E"/>
</svg>
